<svg xmlns="http://www.w3.org/2000/svg" viewBox="791.4 466 339.36 104.73">
  <defs>
    <style>
      .cls-1 {
        fill: #f70909;
        fill-rule: evenodd;
      }
    </style>
  </defs>
  <path id="Color_Fill_1" data-name="Color Fill 1" class="cls-1" d="M868.822,569.6l-32.76-38.92,32.48-39.2H839l-23.66,31.78V466H791.4V569.6h23.94v-32.76l23.8,32.76h29.68Zm4.339-39.2a47.116,47.116,0,0,0,4.55,21.21,34.312,34.312,0,0,0,12.39,14.14,31.754,31.754,0,0,0,17.36,4.97,30.066,30.066,0,0,0,14.49-3.36,25.867,25.867,0,0,0,9.73-8.82V569.6h23.94v-78.12h-23.94v11.06a24.76,24.76,0,0,0-9.59-8.82,30.066,30.066,0,0,0-14.49-3.36,32.35,32.35,0,0,0-17.5,4.9,33.933,33.933,0,0,0-12.39,14,46.687,46.687,0,0,0-4.55,21.14h0Zm58.52,0.14q0,8.961-4.97,14.14a16.668,16.668,0,0,1-24.22-.07q-4.971-5.25-4.97-14.21t4.97-14.07a16.825,16.825,0,0,1,24.22.07q4.968,5.181,4.97,14.14h0Zm94.5-39.06V533.9q0,7.842-4.06,12.18t-11.06,4.34q-6.855,0-10.92-4.34t-4.061-12.18v-42.42h-23.8v45.64a39.3,39.3,0,0,0,3.78,17.78,26.9,26.9,0,0,0,10.64,11.55,30.883,30.883,0,0,0,15.821,3.99,30.11,30.11,0,0,0,13.79-3.15,26.318,26.318,0,0,0,9.87-8.33V569.6h23.94v-78.12h-23.94Zm72.94,79.24a42.356,42.356,0,0,0,16.73-3.08,25.507,25.507,0,0,0,11.06-8.47,20.6,20.6,0,0,0,3.85-12.25q-0.15-8.118-4.27-12.95a24.451,24.451,0,0,0-9.59-7,122.44,122.44,0,0,0-14.14-4.41,57.179,57.179,0,0,1-11.13-3.36q-3.57-1.68-3.57-5.04a5.126,5.126,0,0,1,2.24-4.41,10.939,10.939,0,0,1,6.44-1.61,12.406,12.406,0,0,1,7.91,2.38,9.59,9.59,0,0,1,3.57,6.44h22.12q-1.26-12.039-9.73-19.32t-23.17-7.28a41.792,41.792,0,0,0-17.15,3.22,24.955,24.955,0,0,0-10.92,8.75,21.466,21.466,0,0,0-3.71,12.25q0,7.98,4.06,12.67a24.078,24.078,0,0,0,9.66,6.86,106.007,106.007,0,0,0,14,4.13,71.448,71.448,0,0,1,11.34,3.57q3.495,1.611,3.5,4.97a5.364,5.364,0,0,1-2.45,4.55,11.808,11.808,0,0,1-6.93,1.75,13.368,13.368,0,0,1-8.26-2.52,9.093,9.093,0,0,1-3.78-6.58h-23.66a25.2,25.2,0,0,0,5.18,13.65,31.071,31.071,0,0,0,12.6,9.59,44.867,44.867,0,0,0,18.2,3.5h0Z"/>
</svg>